<?xml version="1.0" encoding="UTF-8"?>
<svg id="Layer_2" data-name="Layer 2" xmlns="http://www.w3.org/2000/svg" viewBox="0 0 612.4 175.06">
  <defs>
    <style>
      .cls-1 {
        fill: #0c2040;
      }
    </style>
  </defs>
  <g id="AW">
    <g>
      <path class="cls-1" d="M49.04,96.98c-.1,13.85-10.91,24.45-24.84,24.35C10.64,121.24.07,110.35.09,96.54h-.09V3.74h49.05v92.8h-.03c0,.15.02.29.02.44ZM119.61,0c-14.43-.14-26.65,11.84-26.75,26.24-.1,14.92,11.3,26.72,25.95,26.82,14.98.11,26.61-11.29,26.73-26.2C145.65,12.34,133.88.14,119.61,0ZM115.66,77.26c-7.29.75-13.81,4.75-17.88,10.98-3.6,5.5-4.68,11.73-3.51,20.2.76,5.5-.38,10.04-3.29,13.11-2.96,3.12-7.53,4.52-13.21,4.04-.9-.08-1.78-.2-2.63-.32-.86-.12-1.67-.24-2.48-.3-.68-.05-1.35-.08-2.03-.08-10.97,0-20.61,7.06-23.87,17.73-3.44,11.25,1.33,23.23,11.59,29.14,9.98,5.74,22.52,3.85,30.5-4.61,5.6-5.94,7.73-13.16,6.51-22.08-.92-6.74.2-11.76,3.35-14.94,3.19-3.23,8.33-4.42,15.29-3.55,1.74.22,3.33.41,4.86.41,10.41-.05,19.49-6.24,23.11-15.77,3.61-9.47,2.2-18.5-3.97-25.42-6.24-6.24-14.38-9.34-22.34-8.53Z"/>
      <path class="cls-1" d="M218.13,3.96v30c0,3.43-.77,6.43-2.3,9.01-1.53,2.58-3.75,4.56-6.64,5.93-2.9,1.37-6.32,2.06-10.28,2.06-5.96,0-10.59-1.53-13.89-4.58-3.3-3.05-4.95-7.24-4.95-12.54V3.96h9.8v28.38c0,3.57.72,6.2,2.16,7.87,1.44,1.67,3.82,2.51,7.14,2.51s5.54-.84,6.99-2.52c1.45-1.68,2.17-4.32,2.17-7.91V3.96h9.8ZM264.89,50.32h-9.67v-20.71c0-2.56-.46-4.48-1.36-5.76-.91-1.28-2.36-1.92-4.35-1.92-2.71,0-4.66.9-5.87,2.71-1.21,1.81-1.81,4.81-1.81,8.99v16.68h-9.67V14.87h7.39l1.3,4.54h.54c1.08-1.71,2.56-3.01,4.46-3.89,1.89-.88,4.04-1.32,6.45-1.32,4.12,0,7.25,1.12,9.39,3.35,2.14,2.23,3.2,5.45,3.2,9.66v23.12ZM277.88,5.7c0-3.15,1.75-4.73,5.26-4.73s5.26,1.58,5.26,4.73c0,1.5-.44,2.67-1.32,3.5-.88.84-2.19,1.25-3.95,1.25-3.51,0-5.26-1.59-5.26-4.76ZM287.97,50.32h-9.67V14.87h9.67v35.46ZM309.99,50.32l-13.51-35.46h10.12l6.85,20.2c.76,2.56,1.24,4.98,1.43,7.26h.19c.11-2.03.58-4.45,1.43-7.26l6.82-20.2h10.12l-13.51,35.46h-9.93ZM358,50.96c-5.71,0-10.17-1.57-13.38-4.73-3.21-3.15-4.82-7.61-4.82-13.38s1.49-10.53,4.46-13.78c2.97-3.25,7.08-4.87,12.32-4.87s8.91,1.43,11.7,4.28c2.79,2.85,4.19,6.8,4.19,11.83v4.69h-22.87c.11,2.75.92,4.9,2.44,6.44,1.52,1.54,3.66,2.32,6.41,2.32,2.13,0,4.15-.22,6.06-.67,1.9-.44,3.89-1.15,5.96-2.12v7.48c-1.69.85-3.5,1.47-5.42,1.89-1.92.41-4.27.62-7.04.62ZM356.63,21.08c-2.05,0-3.66.65-4.82,1.95s-1.83,3.15-2,5.53h13.57c-.04-2.39-.67-4.23-1.87-5.53s-2.83-1.95-4.88-1.95ZM403.55,14.2c1.31,0,2.4.1,3.27.29l-.73,9.07c-.78-.21-1.73-.32-2.85-.32-3.09,0-5.49.79-7.21,2.38-1.72,1.59-2.58,3.81-2.58,6.66v18.05h-9.67V14.87h7.33l1.43,5.96h.48c1.1-1.99,2.58-3.59,4.46-4.8,1.87-1.22,3.91-1.82,6.1-1.82ZM441.44,39.79c0,3.64-1.26,6.41-3.79,8.31-2.53,1.9-6.31,2.85-11.34,2.85-2.58,0-4.78-.17-6.6-.52-1.82-.35-3.52-.86-5.11-1.54v-7.99c1.8.85,3.82,1.55,6.07,2.12s4.23.86,5.95.86c3.51,0,5.26-1.02,5.26-3.04,0-.76-.23-1.38-.7-1.85-.47-.48-1.27-1.02-2.41-1.62-1.14-.6-2.66-1.31-4.57-2.11-2.73-1.14-4.73-2.2-6.01-3.17-1.28-.97-2.21-2.09-2.79-3.35-.58-1.26-.87-2.81-.87-4.65,0-3.15,1.22-5.59,3.66-7.31,2.44-1.72,5.9-2.58,10.39-2.58s8.42.93,12.46,2.79l-2.92,6.98c-1.78-.76-3.44-1.38-4.98-1.87s-3.12-.73-4.73-.73c-2.85,0-4.28.77-4.28,2.31,0,.87.46,1.62,1.38,2.25s2.93,1.58,6.04,2.82c2.77,1.12,4.8,2.17,6.09,3.14,1.29.97,2.24,2.09,2.85,3.36.61,1.27.92,2.78.92,4.54ZM452.02,5.7c0-3.15,1.75-4.73,5.26-4.73s5.26,1.58,5.26,4.73c0,1.5-.44,2.67-1.32,3.5-.88.84-2.19,1.25-3.95,1.25-3.51,0-5.26-1.59-5.26-4.76ZM462.1,50.32h-9.67V14.87h9.67v35.46ZM490.63,43.25c1.69,0,3.72-.37,6.09-1.11v7.2c-2.41,1.08-5.37,1.62-8.88,1.62-3.87,0-6.69-.98-8.45-2.93-1.77-1.96-2.65-4.89-2.65-8.8v-17.09h-4.63v-4.09l5.33-3.23,2.79-7.48h6.18v7.55h9.93v7.26h-9.93v17.09c0,1.37.39,2.39,1.16,3.04.77.66,1.79.98,3.06.98ZM529.85,50.32l-1.87-4.82h-.25c-1.63,2.05-3.3,3.47-5.03,4.27-1.72.79-3.97,1.19-6.74,1.19-3.4,0-6.08-.97-8.04-2.92-1.96-1.94-2.93-4.71-2.93-8.31s1.32-6.54,3.95-8.33c2.63-1.79,6.6-2.77,11.91-2.97l6.15-.19v-1.55c0-3.59-1.84-5.39-5.52-5.39-2.83,0-6.16.86-9.99,2.57l-3.2-6.53c4.08-2.14,8.61-3.2,13.57-3.2s8.4,1.04,10.94,3.11c2.54,2.07,3.81,5.22,3.81,9.45v23.63h-6.75ZM521.73,10.97c-1.33-.93-3.29-2.44-5.87-4.52-2.58-2.08-4.59-3.82-6.03-5.22v-.67h10.85c1.33,2.14,3.82,5.32,7.45,9.55v.86h-6.41ZM526.99,33.9l-3.74.13c-2.81.08-4.91.59-6.28,1.52-1.38.93-2.06,2.35-2.06,4.25,0,2.73,1.56,4.09,4.69,4.09,2.24,0,4.03-.65,5.38-1.93s2.01-3,2.01-5.14v-2.92ZM207.76,98.58c0,4.19-1.51,7.48-4.52,9.9-3.01,2.41-7.2,3.62-12.57,3.62-4.95,0-9.32-.93-13.13-2.79v-9.13c3.13,1.4,5.78,2.38,7.94,2.95,2.17.57,4.15.86,5.95.86,2.16,0,3.81-.41,4.96-1.24,1.15-.82,1.73-2.05,1.73-3.68,0-.91-.25-1.72-.76-2.43-.51-.71-1.25-1.39-2.24-2.05-.98-.66-2.99-1.7-6.01-3.14-2.83-1.33-4.96-2.61-6.37-3.84-1.42-1.23-2.55-2.65-3.39-4.28-.85-1.63-1.27-3.53-1.27-5.71,0-4.1,1.39-7.33,4.17-9.67s6.62-3.52,11.53-3.52c2.41,0,4.71.29,6.9.86s4.48,1.37,6.87,2.41l-3.17,7.64c-2.47-1.02-4.52-1.72-6.14-2.12-1.62-.4-3.21-.6-4.77-.6-1.86,0-3.29.43-4.28,1.3-.99.87-1.49,2-1.49,3.39,0,.87.2,1.62.6,2.27.4.65,1.04,1.27,1.92,1.87.88.6,2.95,1.69,6.23,3.25,4.33,2.07,7.31,4.15,8.91,6.23s2.41,4.64,2.41,7.66ZM241.36,111.45l-1.87-4.82h-.25c-1.63,2.05-3.3,3.47-5.03,4.27-1.72.79-3.97,1.19-6.74,1.19-3.4,0-6.08-.97-8.04-2.92-1.96-1.94-2.93-4.71-2.93-8.31s1.32-6.54,3.95-8.33c2.63-1.79,6.6-2.77,11.91-2.97l6.15-.19v-1.55c0-3.59-1.84-5.39-5.52-5.39-2.83,0-6.16.86-9.99,2.57l-3.2-6.53c4.08-2.14,8.61-3.2,13.57-3.2s8.4,1.04,10.94,3.11c2.54,2.07,3.81,5.22,3.81,9.45v23.63h-6.75ZM238.51,95.03l-3.74.13c-2.81.08-4.91.59-6.28,1.52-1.38.93-2.06,2.35-2.06,4.25,0,2.73,1.56,4.09,4.69,4.09,2.24,0,4.03-.65,5.38-1.93s2.01-3,2.01-5.14v-2.92ZM294.25,111.45h-9.67v-20.71c0-2.56-.46-4.48-1.36-5.76-.91-1.28-2.36-1.92-4.35-1.92-2.71,0-4.66.9-5.87,2.71-1.21,1.81-1.81,4.81-1.81,8.99v16.68h-9.67v-35.46h7.39l1.3,4.54h.54c1.08-1.71,2.56-3.01,4.46-3.89,1.89-.88,4.04-1.32,6.45-1.32,4.12,0,7.25,1.12,9.39,3.35,2.14,2.23,3.2,5.45,3.2,9.66v23.12ZM338.55,93.66v17.79h-9.83v-46.37h13.51c6.3,0,10.96,1.15,13.99,3.44s4.54,5.78,4.54,10.45c0,2.73-.75,5.15-2.25,7.28-1.5,2.12-3.63,3.79-6.37,5,6.98,10.42,11.52,17.16,13.64,20.2h-10.91l-11.07-17.79h-5.23ZM338.55,85.67h3.17c3.11,0,5.4-.52,6.88-1.55,1.48-1.04,2.22-2.66,2.22-4.88s-.76-3.76-2.27-4.69c-1.51-.93-3.85-1.4-7.02-1.4h-2.98v12.53ZM396.8,111.45l-1.87-4.82h-.25c-1.63,2.05-3.3,3.47-5.03,4.27-1.72.79-3.97,1.19-6.74,1.19-3.4,0-6.08-.97-8.04-2.92-1.96-1.94-2.93-4.71-2.93-8.31s1.32-6.54,3.95-8.33c2.63-1.79,6.6-2.77,11.91-2.97l6.15-.19v-1.55c0-3.59-1.84-5.39-5.52-5.39-2.83,0-6.16.86-9.99,2.57l-3.2-6.53c4.08-2.14,8.61-3.2,13.57-3.2s8.4,1.04,10.94,3.11c2.54,2.07,3.81,5.22,3.81,9.45v23.63h-6.75ZM393.94,95.03l-3.74.13c-2.81.08-4.91.59-6.28,1.52-1.38.93-2.06,2.35-2.06,4.25,0,2.73,1.56,4.09,4.69,4.09,2.24,0,4.03-.65,5.38-1.93s2.01-3,2.01-5.14v-2.92ZM436.55,83.26h-8.37v28.19h-9.67v-28.19h-5.33v-4.66l5.33-2.6v-2.6c0-4.04.99-6.99,2.98-8.85,1.99-1.86,5.17-2.79,9.55-2.79,3.34,0,6.31.5,8.91,1.49l-2.47,7.1c-1.95-.61-3.74-.92-5.39-.92-1.37,0-2.37.41-2.98,1.22-.61.81-.92,1.86-.92,3.12v2.22h8.37v7.26ZM465.15,83.26h-8.37v28.19h-9.67v-28.19h-5.33v-4.66l5.33-2.6v-2.6c0-4.04.99-6.99,2.98-8.85,1.99-1.86,5.17-2.79,9.55-2.79,3.34,0,6.31.5,8.91,1.49l-2.47,7.1c-1.95-.61-3.74-.92-5.39-.92-1.37,0-2.37.41-2.98,1.22-.61.81-.92,1.86-.92,3.12v2.22h8.37v7.26ZM496.66,111.45l-1.87-4.82h-.25c-1.63,2.05-3.3,3.47-5.03,4.27-1.72.79-3.97,1.19-6.74,1.19-3.4,0-6.08-.97-8.04-2.92-1.96-1.94-2.93-4.71-2.93-8.31s1.32-6.54,3.95-8.33c2.63-1.79,6.6-2.77,11.91-2.97l6.15-.19v-1.55c0-3.59-1.84-5.39-5.52-5.39-2.83,0-6.16.86-9.99,2.57l-3.2-6.53c4.08-2.14,8.61-3.2,13.57-3.2s8.4,1.04,10.94,3.11c2.54,2.07,3.81,5.22,3.81,9.45v23.63h-6.75ZM493.8,95.03l-3.74.13c-2.81.08-4.91.59-6.28,1.52-1.38.93-2.06,2.35-2.06,4.25,0,2.73,1.56,4.09,4.69,4.09,2.24,0,4.03-.65,5.38-1.93s2.01-3,2.01-5.14v-2.92ZM532.86,112.09c-5.71,0-10.17-1.57-13.38-4.73-3.21-3.15-4.82-7.61-4.82-13.38s1.49-10.53,4.46-13.78c2.97-3.25,7.08-4.87,12.32-4.87s8.91,1.43,11.7,4.28c2.79,2.85,4.19,6.8,4.19,11.83v4.69h-22.87c.11,2.75.92,4.9,2.44,6.44,1.52,1.54,3.66,2.32,6.41,2.32,2.13,0,4.15-.22,6.06-.67,1.9-.44,3.89-1.15,5.96-2.12v7.48c-1.69.85-3.5,1.47-5.42,1.89-1.92.41-4.27.62-7.04.62ZM531.5,82.21c-2.05,0-3.66.65-4.82,1.95s-1.83,3.15-2,5.53h13.57c-.04-2.39-.67-4.23-1.87-5.53s-2.83-1.95-4.88-1.95ZM568.3,111.45h-9.67v-49.35h9.67v49.35ZM597.94,112.09c-5.71,0-10.17-1.57-13.38-4.73-3.21-3.15-4.82-7.61-4.82-13.38s1.49-10.53,4.46-13.78c2.97-3.25,7.08-4.87,12.32-4.87s8.91,1.43,11.7,4.28c2.79,2.85,4.19,6.8,4.19,11.83v4.69h-22.87c.11,2.75.92,4.9,2.44,6.44,1.52,1.54,3.66,2.32,6.41,2.32,2.13,0,4.15-.22,6.06-.67,1.9-.44,3.89-1.15,5.96-2.12v7.48c-1.69.85-3.5,1.47-5.42,1.89-1.92.41-4.27.62-7.04.62ZM596.58,82.21c-2.05,0-3.66.65-4.82,1.95s-1.83,3.15-2,5.53h13.57c-.04-2.39-.67-4.23-1.87-5.53s-2.83-1.95-4.88-1.95ZM190.22,154.79v17.79h-9.83v-46.37h13.51c6.3,0,10.96,1.15,13.99,3.44s4.54,5.78,4.54,10.45c0,2.73-.75,5.15-2.25,7.28-1.5,2.12-3.63,3.79-6.37,5,6.98,10.42,11.52,17.16,13.64,20.2h-10.91l-11.07-17.79h-5.23ZM190.22,146.8h3.17c3.11,0,5.4-.52,6.88-1.55,1.48-1.04,2.22-2.66,2.22-4.88s-.76-3.76-2.27-4.69c-1.51-.93-3.85-1.4-7.02-1.4h-2.98v12.53ZM258.17,154.79c0,5.77-1.52,10.29-4.57,13.54-3.04,3.26-7.28,4.88-12.72,4.88-3.4,0-6.41-.75-9.01-2.24s-4.6-3.63-5.99-6.42-2.09-6.05-2.09-9.77c0-5.79,1.51-10.3,4.54-13.51,3.02-3.21,7.27-4.82,12.75-4.82,3.4,0,6.41.74,9.01,2.22,2.6,1.48,4.6,3.61,5.99,6.38,1.4,2.77,2.09,6.02,2.09,9.74ZM233.65,154.79c0,3.51.58,6.16,1.73,7.96,1.15,1.8,3.03,2.7,5.63,2.7s4.43-.89,5.57-2.68c1.13-1.79,1.7-4.44,1.7-7.98s-.57-6.14-1.71-7.9c-1.14-1.75-3.01-2.63-5.61-2.63s-4.44.87-5.58,2.62c-1.14,1.74-1.71,4.38-1.71,7.91ZM301.35,172.59h-9.67v-20.71c0-2.56-.43-4.48-1.28-5.76s-2.2-1.92-4.04-1.92c-2.47,0-4.27.91-5.39,2.73-1.12,1.82-1.68,4.81-1.68,8.98v16.68h-9.67v-35.46h7.39l1.3,4.54h.54c.95-1.63,2.33-2.9,4.12-3.82,1.8-.92,3.86-1.38,6.18-1.38,5.31,0,8.9,1.73,10.78,5.2h.86c.95-1.65,2.35-2.93,4.2-3.84,1.85-.91,3.94-1.36,6.26-1.36,4.02,0,7.06,1.03,9.12,3.09,2.06,2.06,3.09,5.37,3.09,9.91v23.12h-9.7v-20.71c0-2.56-.43-4.48-1.29-5.76-.86-1.28-2.2-1.92-4.04-1.92-2.37,0-4.14.85-5.31,2.54-1.17,1.69-1.76,4.38-1.76,8.06v17.79ZM359.34,172.59l-1.87-4.82h-.25c-1.63,2.05-3.3,3.47-5.03,4.27-1.72.79-3.97,1.19-6.74,1.19-3.4,0-6.08-.97-8.04-2.92-1.96-1.94-2.93-4.71-2.93-8.31s1.32-6.54,3.95-8.33c2.63-1.79,6.6-2.77,11.91-2.97l6.15-.19v-1.55c0-3.59-1.84-5.39-5.52-5.39-2.83,0-6.16.86-9.99,2.57l-3.2-6.53c4.08-2.14,8.61-3.2,13.57-3.2s8.4,1.04,10.94,3.11c2.54,2.07,3.81,5.22,3.81,9.45v23.63h-6.75ZM356.49,156.16l-3.74.13c-2.81.08-4.91.59-6.28,1.52-1.38.93-2.06,2.35-2.06,4.25,0,2.73,1.56,4.09,4.69,4.09,2.24,0,4.03-.65,5.38-1.93s2.01-3,2.01-5.14v-2.92Z"/>
    </g>
  </g>
</svg>